<svg width="92" height="32" viewBox="0 0 92 32" fill="none" xmlns="http://www.w3.org/2000/svg">
<path fillRule="evenodd" clipRule="evenodd" d="M16 4.57153H4.57141L16 16.0001H4.57141L16 27.4287H27.4286L16 16.0001H27.4286L16 4.57153Z" fill="white"/>
<path d="M45.5994 6.36364L49.5593 13.0561H49.7127L53.6918 6.36364H58.3803L52.3878 16.1818L58.5146 26H53.7397L49.7127 19.2979H49.5593L45.5323 26H40.7766L46.9226 16.1818L40.8917 6.36364H45.5994ZM65.0153 6.36364V26H60.9308V6.36364H65.0153ZM68.2872 26V11.2727H72.3717V26H68.2872ZM70.339 9.37429C69.7318 9.37429 69.2108 9.17294 68.7762 8.77024C68.3479 8.36115 68.1338 7.87216 68.1338 7.30327C68.1338 6.74077 68.3479 6.25817 68.7762 5.85547C69.2108 5.44638 69.7318 5.24183 70.339 5.24183C70.9463 5.24183 71.464 5.44638 71.8923 5.85547C72.327 6.25817 72.5443 6.74077 72.5443 7.30327C72.5443 7.87216 72.327 8.36115 71.8923 8.77024C71.464 9.17294 70.9463 9.37429 70.339 9.37429ZM75.6436 31.5227V11.2727H79.6706V13.7464H79.8528C80.0318 13.3501 80.2907 12.9474 80.6294 12.5384C80.9746 12.1229 81.4221 11.7777 81.9718 11.5028C82.5279 11.2216 83.2182 11.081 84.0428 11.081C85.1167 11.081 86.1074 11.3622 87.0151 11.9247C87.9228 12.4808 88.6483 13.3214 89.1916 14.4464C89.7349 15.565 90.0066 16.968 90.0066 18.6555C90.0066 20.2983 89.7413 21.6854 89.2108 22.8168C88.6866 23.9418 87.9707 24.7951 87.063 25.3768C86.1618 25.9521 85.1518 26.2397 84.0332 26.2397C83.2406 26.2397 82.5662 26.1087 82.0101 25.8466C81.4604 25.5845 81.0098 25.2553 80.6582 24.859C80.3066 24.4563 80.0382 24.0504 79.8528 23.6413H79.7282V31.5227H75.6436ZM79.6419 18.6364C79.6419 19.5121 79.7633 20.2759 80.0062 20.9279C80.2491 21.5799 80.6007 22.0881 81.0609 22.4524C81.5211 22.8104 82.0804 22.9893 82.7388 22.9893C83.4036 22.9893 83.9661 22.8072 84.4263 22.4428C84.8865 22.0721 85.2349 21.5607 85.4714 20.9087C85.7143 20.2504 85.8358 19.4929 85.8358 18.6364C85.8358 17.7862 85.7175 17.0384 85.481 16.3928C85.2445 15.7472 84.8961 15.2422 84.4359 14.8778C83.9757 14.5135 83.41 14.3313 82.7388 14.3313C82.074 14.3313 81.5115 14.5071 81.0513 14.8587C80.5975 15.2102 80.2491 15.7088 80.0062 16.3544C79.7633 17 79.6419 17.7607 79.6419 18.6364Z" fill="white"/>
</svg>
